<svg xmlns="http://www.w3.org/2000/svg" viewBox="0 0 260 260"><defs><style>.cls-1{fill:#237aba;fill-rule:evenodd;}</style></defs><title>4_016_alarm_icon</title><g id="icons"><path class="cls-1" d="M65.83,121.32,88,117l56,56.41-6.1,20.48-72-72.53Zm105,63.2,40.65-40.93a69.07,69.07,0,0,0,20.29-48.26,67.15,67.15,0,0,0-11.89-38.94L240,36.12,224,20,204.05,40.07a65,65,0,0,0-39.86-12.73A68.69,68.69,0,0,0,116.51,48L75.9,88.89l-52.63,14c-3.57,1-4.34,3.85-1.71,6.46l39.58,39.42-.64.61a34.71,34.71,0,0,0,0,48.78,34.13,34.13,0,0,0,48.45,0c.21-.21.41-.43.61-.64l40.11,40.85c2.59,2.64,5.5,1.89,6.49-1.67l14.65-52.23Zm0,0"/></g></svg>