<svg xmlns="http://www.w3.org/2000/svg" viewBox="0 0 260 260"><defs><style>.cls-1{fill:#237aba;}</style></defs><title>4_003_help_icon</title><g id="icons"><path class="cls-1" d="M130,10A120,120,0,1,0,250,130,120,120,0,0,0,130,10Zm0,190a15,15,0,1,1,15-15A15,15,0,0,1,130,200Zm22.5-70.39c-13.5,7.87-13.35,11.21-13.35,27.79H119.57a114.76,114.76,0,0,1-.59-12.05c0-12.73,7-20.1,15.72-25.45,8.16-5.19,11.87-8.88,11.87-17.08,0-6.7-5-11.39-13.95-11.39-9.78,0-19.72,6.87-25.51,14.57L92.73,90.76c9-11.38,22.84-20.76,42.42-20.76C157.69,70,170,82.89,170,100.64,170,116.21,162.14,123.75,152.5,129.61Z"/></g></svg>